<?xml version="1.0" standalone="no"?>
<!DOCTYPE svg PUBLIC "-//W3C//DTD SVG 20010904//EN"
 "http://www.w3.org/TR/2001/REC-SVG-20010904/DTD/svg10.dtd">
<svg version="1.0" xmlns="http://www.w3.org/2000/svg"
 width="200.000000pt" height="200.000000pt" viewBox="0 0 200.000000 200.000000"
 preserveAspectRatio="xMidYMid meet">

<g transform="translate(0.000000,200.000000) scale(0.100000,-0.100000)"
fill="#000000" stroke="none">
<path d="M9 1163 c0 -252 -2 -475 -4 -496 -2 -27 2 -40 14 -46 9 -5 95 -27
191 -51 96 -23 312 -75 480 -116 l305 -75 75 17 c41 9 208 49 370 89 162 40
349 85 415 101 66 15 123 31 128 34 5 5 10 655 7 988 0 9 -205 12 -990 12
l-990 0 -1 -457z m1915 401 c14 -5 16 -55 16 -454 l0 -448 -147 -36 c-82 -19
-287 -69 -458 -111 -170 -41 -321 -75 -335 -75 -14 0 -99 18 -190 40 -91 22
-297 72 -457 111 l-293 72 0 447 c0 246 3 450 7 453 8 9 1836 9 1857 1z"/>
<path d="M92 1109 l3 -421 75 -19 c470 -116 816 -199 831 -199 11 0 182 40
381 89 200 49 399 97 443 108 l80 19 3 422 2 422 -910 0 -910 0 2 -421z m328
240 c9 -16 18 -19 36 -15 13 4 24 3 24 -1 0 -5 -20 -57 -44 -118 l-43 -110
-56 -3 c-44 -2 -56 0 -52 10 3 8 -10 29 -30 48 -26 25 -32 37 -24 47 6 7 8 24
5 39 -6 23 -4 25 14 19 12 -4 28 -1 37 6 13 11 18 10 30 -6 13 -18 14 -16 8
28 -7 48 -7 48 18 42 19 -5 28 -2 37 14 6 12 15 21 20 21 5 0 14 -9 20 -21z
m202 -123 c26 -66 48 -121 48 -123 0 -2 -13 -3 -29 -3 -20 0 -30 6 -34 20 -4
17 -14 20 -56 20 -40 0 -52 -4 -61 -20 -14 -26 -66 -29 -55 -2 4 9 24 60 44
112 45 117 48 122 74 118 16 -2 31 -28 69 -122z m358 89 c0 -31 3 -35 25 -35
18 0 25 -5 25 -20 0 -15 -7 -20 -25 -20 -24 0 -25 -2 -25 -70 0 -68 -1 -70
-25 -70 -24 0 -25 2 -25 70 0 68 -1 70 -25 70 -18 0 -25 5 -25 20 0 15 7 20
25 20 21 0 25 5 25 28 0 33 7 42 32 42 14 0 18 -8 18 -35z m-250 -89 c0 -70 7
-86 36 -86 30 0 44 32 44 96 0 41 2 45 23 42 21 -3 22 -8 25 -90 l3 -88 -43 0
c-24 -1 -56 -1 -71 -2 -46 -1 -61 23 -65 107 l-4 75 26 0 c25 0 26 -2 26 -54z
m471 25 c49 -50 30 -129 -36 -151 -85 -28 -160 53 -120 130 30 57 108 68 156
21z m-723 -208 c-2 -13 -14 -19 -41 -21 l-37 -3 0 -105 0 -104 -25 0 -25 0 0
105 0 105 -35 0 c-28 0 -35 4 -35 20 0 19 7 20 101 20 90 0 100 -2 97 -17z
m502 -108 c0 -114 -2 -125 -18 -125 -10 0 -23 5 -29 11 -8 8 -13 8 -17 0 -14
-22 -67 -12 -98 19 -27 28 -30 36 -25 73 8 58 46 91 99 84 38 -5 38 -5 38 29
0 30 3 34 25 34 l25 0 0 -125z m-402 37 c3 -18 -1 -22 -22 -22 -28 0 -34 -13
-38 -90 -3 -38 -6 -45 -25 -48 -22 -3 -23 -1 -23 86 0 49 2 91 5 94 3 3 27 5
53 4 41 -1 47 -4 50 -24z m122 18 c13 -7 21 -7 25 0 3 5 15 10 26 10 17 0 19
-8 19 -95 0 -87 -2 -95 -19 -95 -11 0 -23 5 -27 11 -4 8 -9 8 -17 0 -20 -20
-73 -12 -101 14 -30 28 -35 79 -11 125 19 37 66 51 105 30z m439 -5 c26 -13
40 -39 41 -72 0 -9 -20 -13 -65 -13 -67 0 -77 -7 -49 -34 18 -19 45 -21 61 -5
14 14 43 5 43 -14 0 -18 -42 -37 -81 -37 -45 0 -89 48 -89 95 0 27 8 44 29 66
33 32 67 37 110 14z m108 4 c8 -8 13 -8 17 0 4 6 16 11 27 11 14 0 19 -7 19
-25 0 -18 -5 -25 -20 -25 -27 0 -40 -29 -40 -89 0 -48 -2 -51 -25 -51 -25 0
-25 1 -25 88 0 49 3 92 7 95 10 10 28 8 40 -4z m254 1 c33 -18 21 -30 -25 -24
-37 5 -46 3 -65 -17 -24 -26 -27 -57 -7 -85 11 -15 25 -19 65 -17 36 1 51 -3
51 -12 0 -7 -10 -15 -22 -19 -45 -12 -77 -6 -107 20 -54 45 -38 133 29 157 25
9 60 8 81 -3z m192 0 l27 0 0 -84 c0 -84 -9 -108 -33 -87 -8 6 -18 6 -27 1
-52 -33 -130 12 -130 74 0 73 36 109 100 101 19 -3 47 -5 63 -5z m-358 -160
c0 -8 -8 -16 -17 -18 -13 -2 -18 3 -18 18 0 15 5 20 18 18 9 -2 17 -10 17 -18z"/>
<path d="M531 1239 c-16 -46 -14 -49 19 -49 34 0 34 1 18 47 -15 41 -23 42
-37 2z"/>
<path d="M1095 1220 c-24 -26 -13 -68 20 -76 35 -9 53 1 61 31 7 29 -18 65
-46 65 -9 0 -25 -9 -35 -20z"/>
<path d="M856 938 c-21 -30 -20 -51 4 -73 17 -15 24 -16 45 -7 29 14 35 61 9
86 -21 22 -40 20 -58 -6z"/>
<path d="M648 949 c-12 -6 -18 -22 -18 -44 0 -43 29 -63 66 -46 30 13 33 60 6
84 -21 19 -30 20 -54 6z"/>
<path d="M1060 945 c-11 -13 -7 -15 30 -15 37 0 41 2 30 15 -7 8 -20 15 -30
15 -10 0 -23 -7 -30 -15z"/>
<path d="M1580 948 c-25 -28 -26 -62 0 -88 41 -41 100 -13 100 48 0 56 -62 81
-100 40z"/>
</g>
</svg>
